<svg viewBox="0 0 1620 1028" xmlns="http://www.w3.org/2000/svg"><g id="a"></g><g id="b"><g id="c"><g><path fill="#e8f2fa" d="M82.36,1023.54s-170.86-239.15-20.4-448.39c121.4-168.83,237.16-27.19,298.99-242.81C432.46,83.01,703.83-90.95,928.49,62.71c224.66,153.66,180.67,211.06,377.28,201.02,196.61-10.04,204.28,194.28,207.66,297.37,3.38,103.09,204.33,158.18,45.59,463.69l-1476.66-1.25Z"></path><g><path fill="#dfebfa" d="M1292.22,205.39h-39.68V89.96c-.62-.46-1.23-.92-1.84-1.38h-11.83v-.06h-68.82v.06h-.06v17.3h.06v11.9h-.06v17.3h.06v11.94h-.06v17.3h.06v.06l-7.29-.06V73.82h-77.22v11.47h-.04v17.3h.04v15.21h-.04v17.3h.04v11.94h-.04v17.3h.04v11.05h-.04v17.3h.04v11.05h-.04v17.3h.04v10.4h-.04v10.99h.04v1.2h-87.04v99.03h-32.52v24.94h-35.06v-42.96h-63.07v-116.71h-9.86v-11.63h-1.41v11.63h-8.18v-.02h-40.91v-11.61h-1.41v11.61h-10.66v58.69l-52.98-.32v36.23h-44.92V78.57h-133.08v239.9h-40.64V188.75h-133.08v839.25l909.37-4.52-7.88-818.09Z"></path><polygon fill="#dfebfa" points="390.85 341.56 390.85 420.22 390.85 537.24 390.85 1022.27 324.01 1022.27 324.01 537.24 324.01 420.22 324.01 341.56 390.85 341.56"></polygon><rect fill="#eef6ff" height="37.96" width="98.84" y="78.57" x="598.68"></rect><rect fill="#eef6ff" height="37.96" width="98.84" y="136.99" x="598.68"></rect><rect fill="#eef6ff" height="37.96" width="98.84" y="196.64" x="598.68"></rect><rect fill="#eef6ff" height="37.96" width="98.84" y="257.23" x="598.68"></rect><rect fill="#eef6ff" height="37.96" width="98.84" y="315.7" x="598.68"></rect><g><rect fill="#eef6ff" height="23.05" width="49.42" y="73.82" x="1085.57"></rect><rect fill="#eef6ff" height="23.05" width="49.42" y="109.3" x="1085.57"></rect><rect fill="#eef6ff" height="23.05" width="49.42" y="145.52" x="1085.57"></rect><rect fill="#eef6ff" height="23.05" width="49.42" y="182.32" x="1085.57"></rect><rect fill="#eef6ff" height="23.05" width="49.42" y="217.83" x="1085.57"></rect></g><g><rect fill="#eef6ff" height="23.05" width="49.42" y="256.91" x="1085.57"></rect><rect fill="#eef6ff" height="23.05" width="49.42" y="292.39" x="1085.57"></rect><rect fill="#eef6ff" height="23.05" width="49.42" y="328.61" x="1085.57"></rect><rect fill="#eef6ff" height="23.05" width="49.42" y="365.41" x="1085.57"></rect><rect fill="#eef6ff" height="23.05" width="49.42" y="400.92" x="1085.57"></rect></g><g><rect fill="#eef6ff" height="23.05" width="49.42" y="88.93" x="1170.16"></rect><rect fill="#eef6ff" height="23.05" width="49.42" y="124.42" x="1170.16"></rect><rect fill="#eef6ff" height="23.05" width="49.42" y="160.64" x="1170.16"></rect><rect fill="#eef6ff" height="23.05" width="49.42" y="197.44" x="1170.16"></rect><rect fill="#eef6ff" height="23.05" width="49.42" y="232.95" x="1170.16"></rect></g><g><rect fill="#eef6ff" height="23.05" width="49.42" y="269.96" x="1170.16"></rect><rect fill="#eef6ff" height="23.05" width="49.42" y="305.45" x="1170.16"></rect><rect fill="#eef6ff" height="23.05" width="49.42" y="341.67" x="1170.16"></rect><rect fill="#eef6ff" height="23.05" width="49.42" y="378.47" x="1170.16"></rect><rect fill="#eef6ff" height="23.05" width="49.42" y="413.98" x="1170.16"></rect></g><g><rect fill="#eef6ff" height="23.05" width="49.42" y="454.7" x="1170.16"></rect><rect fill="#eef6ff" height="23.05" width="49.42" y="490.18" x="1170.16"></rect><rect fill="#eef6ff" height="23.05" width="49.42" y="526.4" x="1170.16"></rect><rect fill="#eef6ff" height="23.05" width="49.42" y="563.2" x="1170.16"></rect><rect fill="#eef6ff" height="23.05" width="49.42" y="598.71" x="1170.16"></rect></g><rect fill="#dfebfa" height="47.03" width="2.45" y="197.44" x="1014.72"></rect><rect fill="#dfebfa" height="91.08" width="3.81" y="157.05" x="1056.03"></rect><rect fill="#dfebfa" height="16.77" width="1.59" y="61.8" x="573.28"></rect><rect fill="#dfebfa" height="16.77" width="1.59" y="61.8" x="606.97"></rect><rect fill="#dfebfa" height="16.77" width="1.59" y="61.8" x="684.2"></rect><rect fill="#dfebfa" height="12.94" width="1.23" y="60.87" x="1093.22"></rect><rect fill="#dfebfa" height="12.94" width="1.23" y="60.87" x="1151.19"></rect><rect fill="#dfebfa" height="16.77" width="1.59" y="61.8" x="654"></rect></g><g><path fill="#afcdfb" d="M533.27,558.18s68.11-130.4,100.34-115.6c32.24,14.8-100.34,115.6-100.34,115.6Z"></path><path fill="#afcdfb" d="M531.42,579.63s151.91-143.97,205-110.9c53.09,33.07-37.45,56.1-71.76,61.55-34.31,5.46-133.23,49.35-133.23,49.35Z"></path><path fill="#afcdfb" d="M518.61,560.52s-.44-5.2-1.17-12.78c-1.42-14.79-3.92-38.65-6.37-50.71-3.71-18.24,5.88-35.13,24.65-21.4,18.77,13.73-12.95,78.21-12.95,78.21l-4.16,6.68Z"></path></g><path fill="#cde0fb" d="M160.47,747.51c1.96-32.88,50.51-33.68,50.51-33.68,0,0,41.52,47.42,51,46.64,9.48-.78-28.45-48.33-28.45-48.33,17.57-5.98,67.63,8.42,67.63,8.42,0,0,8.46,64.33,17.47,60.94,9.02-3.38-10.07-56.53-10.07-56.53,18.38,1.94,38.62,21.04,38.62,21.04,26.83,32.48-11.66,69.53-11.66,69.53,0,0,3.36,22.22,20.01,44.83h0s3.57,4.06,7.77,11.39l-4.73,1.06c-.64-1.34-1.31-2.62-2.02-3.84,0,0,0-.02-.01-.02-.01-.02-.02-.04-.03-.05-.47-.75-1.14-1.81-1.98-3.11h0c-2.01-2.86-3.4-4.99-4.32-6.55h0c-6.11-9.02-14.66-20.61-19.3-22.4,0,0,.38-.94,.58-2.67-.18,.85-.38,1.74-.58,2.67-4.62,21.31-44.5,33.67-67.97,33.55-23.47-.12-14.92-9.48-4.84-23.81,10.07-14.33,36.05-17,42.75-23.24,6.7-6.24-5.09-8.32-19.89-3.63-14.8,4.68-19.3,23.27-43.11,31.33-23.81,8.07-51.46-39.1-51.46-39.1,17.8,2.07,46.01-15.09,46.01-21.85,0-6.76-44.39,3.91-51.68,3.53-7.28-.39-22.2-13.25-20.24-46.13Z"></path><path fill="#afcdfb" d="M156.1,187.09c6.89-42.75,74.22-30.09,74.22-30.09,0,0,51.45,74.17,64.68,75.82,13.22,1.65-33.25-71.69-33.25-71.69,25.09-2.92,92.57,30.19,92.57,30.19,0,0,3.53,87.1,16.44,85.19,12.91-1.91-6.76-77.29-6.76-77.29,25.2,7.75,50.79,38.61,50.79,38.61,33.02,50.35-24.98,88.28-24.98,88.28,0,0,1.82,30.21,22.01,64.69h0s4.43,6.36,9.32,17.19l-6.68,.07c-.72-1.94-1.48-3.82-2.31-5.62,0-.01,0-.02-.02-.03-.01-.03-.02-.05-.04-.08-.56-1.12-1.35-2.71-2.34-4.65h0s0-.01,0-.02c-2.42-4.32-4.08-7.52-5.16-9.83,0,0,0-.01,0-.02-7.31-13.58-17.67-31.26-23.88-34.93,0,0,.64-1.14,1.14-3.35-.36,1.07-.74,2.18-1.14,3.35-9.1,26.77-65.89,31.78-98.37,24.99-32.48-6.79-19.45-16.7-3.68-32.73,15.77-16.03,52.07-12.21,62.15-18.54,10.07-6.32-5.99-12.39-27.07-10.4-21.08,1.99-29.68,25.19-63.68,29.09-34,3.9-66.27-66.02-66.27-66.02,24.39,7.76,65.62-6.88,66.48-15.78,.86-8.9-61.96-7.38-72-9.95-10.03-2.57-29.05-23.72-22.16-66.46Z"></path><path fill="#afcdfb" d="M1481.63,463.3c-9.36-38.6-67.31-26.42-67.31-26.42,0,0-39.26,67.65-50.71,69.28-11.45,1.63,23.52-65.21,23.52-65.21-22.19-2.37-78.68,28.31-78.68,28.31,0,0,3.7,78.83-7.75,77.24-11.45-1.59-.11-69.99-.11-69.99-21.46,7.28-41.45,35.48-41.45,35.48-24.98,45.9,28.75,79.59,28.75,79.59,0,0,.76,27.35-14.22,58.75h0s-3.38,5.8-6.82,15.65h5.85c.48-1.78,1-3.48,1.58-5.12,0-.01,0-.02,.01-.03,0-.02,.02-.05,.03-.07,.4-1.02,.97-2.47,1.69-4.23h0c1.78-3.95,2.99-6.86,3.75-8.96v-.02c5.35-12.36,13.04-28.47,18.18-31.86,0,0-.65-1.02-1.26-3.02,.4,.96,.82,1.96,1.26,3.02,10.06,24.11,60.16,28.04,88.06,21.55,27.9-6.49,15.72-15.32,.67-29.65-15.05-14.33-46.53-10.49-55.85-16.1-9.31-5.61,4.28-11.27,22.89-9.7,18.61,1.57,27.95,22.47,58.01,25.63,30.06,3.16,52.87-60.44,52.87-60.44-20.74,7.28-57.98-5.52-59.42-13.56-1.44-8.04,53.66-7.34,62.25-9.78,8.58-2.43,23.58-21.77,14.22-60.36Z"></path><path fill="#cde0fb" d="M751.26,143.93c15.15-23.61,51.86,1.32,51.86,1.32,0,0,11.38,57.36,18.81,61.76,7.43,4.4-1.21-51.18-1.21-51.18,15.66,4.75,47.18,41.87,47.18,41.87,0,0-20.43,52.65-12.27,54.86,8.16,2.21,15.97-47.66,15.97-47.66,12.97,11.12,20.18,36.07,20.18,36.07,6.59,38.45-37.67,45.97-37.67,45.97,0,0-6.73,18.42-3.66,44.11h0s.99,4.92,1.09,12.62l-3.99-1.69c.08-1.34,.11-2.65,.08-3.94,0,0,0-.02,0-.02v-.06c-.04-.81-.1-1.96-.19-3.37h0c-.32-3.21-.48-5.53-.52-7.18,0,0,0-.01,0-.02-.83-9.96-2.41-23.14-5.15-26.92,0,0,.67-.51,1.54-1.69-.49,.54-1,1.1-1.54,1.69-12.33,13.54-47.36,1.84-64.89-10.6-17.54-12.43-7.23-14.95,6.28-20.39,13.51-5.45,34.09,6.21,41.71,5.06,7.62-1.15-.35-8.91-13.39-13.18-13.04-4.27-24.15,7.29-45.35,.81-21.2-6.48-22.29-56.35-22.29-56.35,12.48,10.91,40.76,12.88,43.57,7.82,2.81-5.06-34.89-20.41-40.19-24.53-5.3-4.12-11.12-21.6,4.02-45.21Z"></path><path fill="#cde0fb" d="M701.29,914.87c-11.48-39.55,45.06-66.17,45.06-66.17,0,0,68.49,33.58,79.27,27.64,10.78-5.93-53.57-41.56-53.57-41.56,18.08-16.31,82.75-25.92,82.75-25.92,0,0,36.84,70.87,45.99,62.14,9.15-8.73-35.47-60.88-35.47-60.88,22.35-7.45,54.05,4.21,54.05,4.21,45.03,23.85,15.46,87.61,15.46,87.61,0,0,13.24,24.25,42.21,41.92h0s5.89,2.87,13.88,9.22l-5.09,3.75c-1.31-1.23-2.63-2.38-3.97-3.43,0-.01-.01-.02-.02-.02-.02-.02-.04-.03-.06-.05-.86-.63-2.1-1.52-3.62-2.59h-.01c-3.55-2.29-6.07-4.04-7.8-5.38,0,0-.01,0-.02-.01-10.92-7.31-25.79-16.37-31.98-16.01,0,0,.04-1.31-.44-3.43,.14,1.09,.29,2.23,.44,3.43,3.52,27.41-38.02,62.99-65.57,75.27-27.54,12.28-21.44-3.21-15.65-25.33,5.79-22.12,35.11-38.99,40.34-49.85,5.24-10.86-9.44-7.05-24.81,6.27-15.37,13.32-12.86,37.47-37.38,59.52-24.52,22.05-76.65-18.57-76.65-18.57,21.72-6.99,47.57-42.02,44.74-49.94-2.83-7.91-50.36,28.08-59.05,31.48-8.69,3.4-31.55-3.77-43.03-43.32Z"></path><path fill="#cde0fb" d="M1471.77,969.45c-11.83,56.25-106.34,33.04-106.34,33.04,0,0-69.05-103.58-87.66-107.01-18.6-3.44,43.46,98.55,43.46,98.55-35.59,1.52-129.31-48.92-129.31-48.92,0,0-.71-116.26-19.05-114.94-18.34,1.32,5.76,103.51,5.76,103.51-35.23-12.69-69.87-56.19-69.87-56.19-44.18-70.13,39.63-115.14,39.63-115.14,0,0-1.1-40.38-27.92-88.17h0s-5.95-8.88-12.32-23.76l9.44,.54c.92,2.65,1.91,5.22,2.98,7.7,0,.02,0,.03,.02,.05,.01,.04,.03,.07,.05,.11,.73,1.54,1.78,3.73,3.08,6.41h0s0,.02,0,.02c3.21,5.99,5.4,10.4,6.8,13.57,0,0,0,.02,.01,.03,9.66,18.76,23.44,43.28,32.02,48.75,0,0-.96,1.45-1.77,4.35,.57-1.39,1.15-2.83,1.77-4.35,14.18-34.76,94.66-36.08,140.21-23.98,45.55,12.1,26.65,24.06,3.59,43.91-23.06,19.85-74.17,11.34-88.71,18.81-14.55,7.47,7.85,17.05,37.74,16.39,29.88-.66,43.17-30.73,91.4-32.71,48.22-1.98,90.39,94.13,90.39,94.13-34.08-12.63-93.05,2.97-94.7,14.73-1.65,11.77,87.18,15.67,101.23,20.03,14.05,4.36,39.88,34.31,28.05,90.55Z"></path><path fill="#2e3552" d="M1586.41,1025.71H35.53c-1.41,0-2.56-1.29-2.56-2.88h0c0-1.58,1.15-2.88,2.56-2.88H1586.41c1.41,0,2.56,1.29,2.56,2.88h0c0,1.58-1.15,2.88-2.56,2.88Z"></path><g><path fill="#f99746" d="M479.68,224.08l-18.37,14.81-18.46-14.65c4.09-6.47,10.85-10.75,18.46-10.75s14.27,4.17,18.37,10.59Z"></path><path fill="#f99746" d="M461.31,177.39c-18.46,0-34.78,10.32-44.68,26.1l11.66,9.2c7.33-11.66,19.41-19.25,33.02-19.25s25.5,7.49,32.83,18.99l11.61-9.36c-9.94-15.56-26.17-25.67-44.44-25.67Z"></path><path fill="#f99746" d="M461.31,108.78c-39.06,0-73.6,21.82-94.54,55.19l11.66,9.2c18.36-29.2,48.67-48.35,82.88-48.35s64.04,18.83,82.45,47.65l11.56-9.36c-20.98-32.89-55.29-54.34-94.01-54.34Z"></path><path fill="#f99746" d="M461.31,144.62c-27.79,0-52.43,15.97-67.42,40.44l11.66,9.5c12.42-20.16,32.78-33.37,55.76-33.37s43.01,12.98,55.48,32.87l11.56-9.61c-15.04-24.14-39.49-39.83-67.04-39.83Z"></path></g><g><rect fill="#243a75" height="154.94" width="272.64" y="852.2" x="705.41"></rect><rect fill="#2f4f9e" ry="12.36" rx="12.36" height="615.16" width="943.63" y="276.06" x="369.91"></rect><rect fill="#afcdfb" height="530.85" width="927.76" y="323.79" x="377.85"></rect><path fill="#2f4f9e" d="M643,982.4h397.45c14.01,0,25.38,11.37,25.38,25.38v15.05h-448.2v-15.05c0-14.01,11.37-25.38,25.38-25.38Z"></path></g><g><path fill="#5f91e6" d="M530.36,355.68h622.73c6.26,0,11.34,5.08,11.34,11.34v455.74H519.02V367.02c0-6.26,5.08-11.34,11.34-11.34Z"></path><rect fill="#fff" height="414.47" width="630.26" y="398.02" x="526.59"></rect><rect fill="#2b478b" height="45.02" width="630.26" y="738.22" x="526.59"></rect><rect fill="#dfebfa" height="15.92" width="630.26" y="752.78" x="526.59"></rect><rect fill="#b5453c" height="16.08" width="39.65" y="752.7" x="526.59"></rect><rect fill="#f99746" ry="7.72" rx="7.72" height="22.92" width="32.73" y="749.28" x="557.77"></rect><g><polygon fill="#2b478b" points="1036.79 504.73 847.36 576.43 653.37 504.4 842.8 432.7 1036.79 504.73"></polygon><path fill="#2b478b" d="M659.21,628.31c2.88-1.6,4.86-4.92,4.86-8.77,0-4.63-2.87-8.5-6.71-9.51v-105.63h-3.99v105.63c-3.84,1.01-6.71,4.88-6.71,9.51,0,3.85,1.98,7.17,4.86,8.77-2.88,1.6-4.86,4.92-4.86,8.77v53.54h17.4v-53.54c0-3.85-1.98-7.17-4.86-8.77Z"></path><path fill="#2b478b" d="M847.36,591.73l-120.28-44.66v69.55c0,24.93,17.98,45.14,40.16,45.14h155.68c22.18,0,40.16-20.21,40.16-45.14v-68.69l-115.72,43.8Z"></path></g><g opacity=".86"><path fill="#f99746" d="M837.01,705.76c-28.82,0-55.92-10.35-76.3-29.14-20.38-18.79-31.6-43.78-31.6-70.36s11.22-51.57,31.6-70.36c20.38-18.79,47.48-29.14,76.3-29.14s55.92,10.35,76.3,29.14c20.38,18.79,31.6,43.78,31.6,70.36s-11.22,51.57-31.6,70.36c-20.38,18.79-47.48,29.14-76.3,29.14Zm0-187.71c-52.73,0-95.64,39.57-95.64,88.2s42.9,88.2,95.64,88.2,95.64-39.57,95.64-88.2-42.9-88.2-95.64-88.2Z"></path><polygon fill="#f99746" points="798 535.62 798 678.56 911.72 607.09 798 535.62"></polygon></g><g><path fill="#2b478b" d="M807.86,376.83c-.11,.8-.13,2.01-.08,2.65-6.53,1.26-7.6,1.58-8.29,1.98-.16-.59-.64-2.01-.99-2.78,.7-.16,1.31-.75,2.14-1.71,.43-.43,1.2-1.42,2.11-2.65-2.38,.27-3.02,.43-3.45,.64-.16-.59-.67-2.09-1.02-2.92,.56-.16,1.02-.72,1.6-1.58,.59-.78,2.41-4.01,3.37-7.06l2.97,1.45c-1.02,2.35-2.49,4.84-3.96,6.9l2.25-.19c.56-.91,1.1-1.85,1.55-2.81l2.57,1.63c-1.42,2.51-3.16,5-4.98,7.14l4.2-.69Zm.29,7.14c-3.05,1.07-6.31,2.25-8.91,3.1l-.64-3c2.25-.59,5.73-1.69,9.07-2.7l.48,2.6Zm14.79-6.15c-1.26,1.98-2.86,3.74-4.71,5.22,.59,1.36,1.23,2.19,1.9,2.19,.51,0,.75-.69,.88-2.84,.62,.75,1.55,1.44,2.22,1.77-.51,3.29-1.34,4.15-3.45,4.15-1.74,0-3.05-1.31-4.12-3.45-1.98,1.26-4.15,2.25-6.45,3.08-.37-.8-1.18-1.87-1.93-2.62,2.59-.78,5.11-1.85,7.3-3.24-.4-1.47-.78-3.1-1.07-4.87l-4.76,.86-.51-2.81,4.9-.91c-.11-.83-.19-1.68-.27-2.54l-3.56,.56-.53-2.86,3.91-.59c-.11-1.87-.16-3.77-.16-5.64h3.16c-.03,1.74,0,3.48,.08,5.16l5.72-.86,.54,2.76-6.07,.96c.08,.86,.16,1.69,.24,2.49l6.02-1.07,.51,2.76-6.13,1.15c.21,1.23,.43,2.41,.67,3.45,1.2-1.02,2.22-2.19,3-3.45l2.68,1.2Zm-3.48-10.03c-.75-.69-2.25-1.79-3.32-2.51l1.85-1.66c1.1,.64,2.59,1.63,3.37,2.3l-1.9,1.87Z"></path><path fill="#2b478b" d="M849.48,383.81v3.21h-24.18v-3.21h9.55v-20.15h3.42v7.68h9.47v3.21h-9.47v9.26h11.21Z"></path><path fill="#2b478b" d="M875.1,371.16c-.56,3.99-1.47,7.25-2.89,9.95,1.2,1.95,2.78,3.48,4.74,4.47-.72,.64-1.71,1.9-2.19,2.78-1.82-1.1-3.32-2.54-4.49-4.28-1.5,1.74-3.34,3.18-5.67,4.36-.29-.75-1.23-2.22-1.82-2.89,2.51-1.1,4.39-2.59,5.75-4.57-.72-1.63-1.34-3.45-1.82-5.4-.4,.64-.8,1.29-1.23,1.85-.35-.4-1.1-1.1-1.77-1.66-1.04,1.2-2.38,2.44-3.69,3.48v.75c1.58-.14,3.18-.27,4.79-.4v2.73c-1.6,.16-3.21,.29-4.79,.43v2.54c0,1.39-.24,2.12-1.18,2.54-.94,.43-2.19,.46-3.88,.46-.11-.83-.51-1.93-.91-2.7,1.07,.03,2.19,.03,2.54,.03,.35-.03,.45-.11,.45-.37v-2.25c-1.87,.16-3.64,.32-5.08,.46l-.35-2.84c1.5-.11,3.4-.24,5.43-.4v-1.52c.72-.51,1.5-1.18,2.22-1.87h-1.68c-1.28,1.07-2.65,2.06-4.09,2.86-.43-.61-1.53-1.85-2.14-2.41,.91-.48,1.82-.99,2.68-1.58v-1.34h1.77c.51-.43,1.02-.88,1.47-1.36h-5.56v-2.73h4.07v-1.79h-3.05v-2.68h3.05v-2.43h2.94v2.43h2.59v1.87c.67-1.12,1.23-2.38,1.69-3.64l2.94,.8c-.75,1.95-1.69,3.77-2.73,5.43h1.5v2.12c1.23-2.54,2.09-5.73,2.59-9.02l3.21,.51c-.27,1.47-.56,2.97-.94,4.36h7.12v2.94h-1.58Zm-16.4-.91h.94c.4-.59,.8-1.18,1.2-1.79h-2.14v1.79Zm4.39,4.68c.45-.56,.88-1.23,1.28-1.95h-3.13c-.37,.48-.75,.94-1.15,1.36h1.5l.56-.16,.94,.75Zm5.67-3.77c.37,2.22,.91,4.36,1.63,6.26,.64-1.85,1.12-3.91,1.42-6.26h-3.05Z"></path><path fill="#2b478b" d="M902.83,368.43h-5.81c1.66,1.39,3.67,3.02,4.76,4.12l-2.68,1.79c-.4-.45-.96-.99-1.58-1.58-12.87,.75-14.5,.78-15.7,1.23-.19-.7-.72-2.27-1.04-3.16,.56-.11,1.12-.43,1.85-.88,.4-.24,1.2-.8,2.09-1.52h-5.59v-2.78h10.49c-.29-.62-.62-1.23-.88-1.77l3.18-.88c.43,.8,.99,1.79,1.44,2.65h9.47v2.78Zm-3.24,16.83c0,1.61-.45,2.3-1.69,2.7-1.23,.37-3.05,.37-5.62,.37-.16-.78-.64-1.85-1.07-2.57,1.66,.11,3.88,.11,4.39,.08,.56,0,.75-.16,.75-.61v-1.18h-10.73v4.31h-3.21v-13.8h17.18v10.7Zm-13.96-8.11v1.23h10.73v-1.23h-10.73Zm10.73,4.71v-1.28h-10.73v1.28h10.73Zm-2.97-12.79l1.02-.64h-4.84c-.96,.8-1.95,1.55-2.94,2.25l8.24-.35-1.47-1.26Z"></path></g></g><g><path fill="#f4a269" d="M1212.54,98.42s-8.51,14.15-13.36,43.91c-4.25,26.06-7.98,35.68-14.12,41.02-6.14,5.34-40.34,21.12-40.34,21.12l2.56,6.73s50.13-7.67,55.76-17.09c5.63-9.42,27.1-65.06,25.43-77.87-1.67-12.81-15.93-17.83-15.93-17.83Z"></path><g><path fill="#ffb27d" d="M1089.79,409.25c.45,5.5-6.35,6.83-14.24,7.27-7.88,.44-5.5,2.26-16.3,4.46-10.8,2.2-15.13-1.12-15.91-2.76-.7-1.46,4.33-3.73,9.68-6.31,.67-.32,1.35-.65,2.02-.98,6.02-2.98,9.4-9.05,14.1-14.68,4.45-5.33,8.67-22.41,8.67-22.41l14.68-3.52s-4.12,15.37-5.55,21.93c-.84,3.86,.4,8.17,1.5,11.46,.59,1.79,1.19,3.62,1.35,5.55Z"></path><path fill="#c65447" d="M1075.55,416.53c-7.88,.44-5.5,2.26-16.3,4.46-10.8,2.2-15.13-1.12-15.91-2.76-.7-1.46,4.33-3.73,9.68-6.31l.08,.1s7.6,2.9,16.36,.22c7.15-2.18,14.06-6.98,18.98-8.53,.59,1.79,1.19,3.62,1.35,5.55,.45,5.5-6.35,6.83-14.24,7.27Z"></path></g><path fill="#ef7e29" d="M1235.97,213.57s-97.55-8.25-115.91,4.78c-18.36,13.03-47.82,164.78-47.82,164.78,0,0,1.82,1.64,5.88,2.13,3.78,.46,12.09-2.04,12.09-2.04,0,0,42.33-67.9,45.31-85.01,2.98-17.11,2.25-32.37,9.04-32.78,6.79-.41,91.42,11.57,104.22-13.79,12.8-25.35,2.22-50.45,2.22-50.45l-15.03,12.36Z"></path><g><path fill="#ffb27d" d="M1127.12,426.87c.45,5.5-6.35,6.83-14.24,7.27-7.88,.44-5.5,2.26-16.3,4.46-10.8,2.2-15.13-1.12-15.91-2.76-.7-1.46,4.33-3.73,9.68-6.3,.67-.32,1.35-.65,2.02-.98,6.02-2.98,9.4-9.05,14.1-14.68,4.45-5.33,8.67-22.41,8.67-22.41l14.68-3.52s-4.12,15.37-5.55,21.93c-.84,3.86,.4,8.17,1.5,11.46,.59,1.79,1.19,3.62,1.35,5.55Z"></path><path fill="#c65447" d="M1112.88,434.14c-7.88,.44-5.5,2.26-16.3,4.46-10.8,2.2-15.13-1.12-15.91-2.76-.7-1.46,4.33-3.73,9.68-6.3l.08,.1s7.6,2.9,16.36,.22c7.15-2.18,14.06-6.98,18.98-8.53,.59,1.79,1.19,3.62,1.35,5.55,.45,5.5-6.35,6.83-14.24,7.27Z"></path></g><path fill="#f99746" d="M1255.08,220.37s-86.66,4.61-104.55,18.43c-17.9,13.82-42.08,166.75-42.08,166.75,0,0,1.87,1.56,5.95,1.87,3.79,.29,12.01-2.56,12.01-2.56,0,0,39.94-69.7,42.33-86.92,2.39-17.22,1.13-32.44,7.9-33.15,6.77-.71,91.75,7.56,103.67-18.34,11.91-25.89-25.23-46.08-25.23-46.08Z"></path><path fill="#b5453c" d="M1225.41,90.63c-1.68-3.32-3.69-9.28-5.14-20.07,.19,1.07,2.66,14.63,7.8,22.02,20.07,12.75,51.78,60.64,51.58,69.67,0,0,19.48-28.99,19.69-29.15,0,0,21.92-36.03-7.63-53.51-15.02-8.88-15.7-21.68-15.76-32.84-.05-11.16-7.43-58.65-35.59-43.96,0,0-4.77-1.97-6.83-1.47,0,0,1.72,.24,2.64,1.17-3.36,.03-8.14,.67-11.98,3.52-10.19,7.56-16.07,68.98,1.21,84.61Z"></path><path fill="#ffb27d" d="M1258.72,82.12s-8.07-.86-16.14,0c-5.48,.59-10.92,2.5-14.01,3.95-7.64,3.59-6.84,18.79,9.19,15.97,16.03-2.81,22.08-15.42,20.95-19.92Z"></path><path fill="#ffb27d" d="M1229.25,93.2c-.09,.06-2.29,13.08,8.21,12.55,6.89-.34,21.74-9.71,20.43-16.34-.62-3.15-5.83-11.33-6.88-29.99l-1.25,.38-21.08,6.36s.93,7.52,1.37,14.64c.37,5.98,.38,11.67-.8,12.4Z"></path><path fill="#f4a269" d="M1228.68,66.16s.93,7.52,1.37,14.64c11.93-1.27,17.53-14.01,19.71-21l-21.08,6.36Z"></path><path fill="#b5453c" d="M1251.81,57.02s5.61-11.6,6.55-21.23c.67-6.87-3.9-31.83-26.2-26.51,0,0-6.5,1.21-12.36,6.34-4.67,4.08-11.25,12.62-2.06,34l2.49,7.27,31.58,.13Z"></path><path fill="#ffb27d" d="M1225.09,73.2s28.32-1.6,27.16-21.4c-1.16-19.81,1.72-33.36-16.41-33.17-18.13,.18-21.2,8-22.24,14.72-1.04,6.72,4.09,39.77,11.49,39.86Z"></path><path fill="#b5453c" d="M1222.93,19.1s9.12,22.66,21.21,25.2c12.09,2.55,17.03-1.42,17.03-1.42,0,0-3.33-14.3-6.06-28.37,0,0-27-6.91-32.19,4.58Z"></path><path fill="#b5453c" d="M1224.96,20.84s-5.48,5.62-6.59,10.77c-1.11,5.15-1.13,15.58-3.84,15.43,0,0-6.77-15.36-.74-24.78,6.39-10,11.17-1.42,11.17-1.42Z"></path><path fill="#1c468a" d="M1196.75,215.23c2.29,3.08,9.45,4.03,17.09,5.44,6.02,1.12,12.34,2.52,16.83,5.49,10.21,6.74,43.56,29.51,53.34,28.47,3.79-.4,3.08-8.53,.79-19.32-3.61-17.04-11.18-40.71-11.18-51,0-5.62-1.66-18.91-3.88-34.1-.18-1.23-.36-2.46-.55-3.71-4.39-29.54-10.47-64.38-10.47-64.38,0,0-6.78,16.64-20,16.64s-10.14-12.69-10.14-12.69c0,0-12.06,1.59-14.91,5.04-2.85,3.45-10.08,18.36-11.51,22.43,0,0-.29,5.17,11.11,7.64,0,0-2.78,14.05-3.1,23.41-.24,6.92,4.2,28.57,5.48,42.03,.45,4.77,.51,8.51-.18,10.21-.88,2.18-3.73,4.34-6.98,6.47-6.44,4.22-14.45,8.27-11.73,11.93Z"></path><path fill="#163560" d="M1208.48,203.3c-7.32,14.02,19.84,18.23,24.33,21.2,10.21,6.74,41.43,31.16,51.2,30.13,3.79-.4,3.08-8.53,.79-19.32-3.61-17.04-11.18-40.71-11.18-51,0-5.62-1.66-18.91-3.88-34.1l-11.77-12.7s-12.61,36.63-24.63,42.63c-6.3,3.14-12.88,5.22-17.71,6.48,.45,4.77,.51,8.51-.18,10.21-.88,2.18-3.73,4.34-6.98,6.47Z"></path><path fill="#ffb27d" d="M1262.34,93.08s10.06-6.87,19.79,6.16c9.73,13.03-6.91,106.16-21.33,110.94-16.01,5.31-62.26-.85-62.26-.85l.89-8.12s49.24-10.61,51.28-13.57c2.05-2.96,6.51-93.06,11.63-94.56Z"></path><path fill="#1c468a" d="M1258.72,82.12s20.66,2.1,26.66,9.73c6,7.64,7.75,28.34,7.75,28.34,0,0-18.19,16.51-40.12,10.1l5.7-48.18Z"></path><g><rect fill="#9e332e" transform="translate(2360.13 431.01) rotate(180)" height="3.62" width="27.29" y="213.69" x="1166.42"></rect><path fill="#9e332e" d="M1172.22,216.82c-.27-1.2-25.09-45.01-25.09-45.01h-55.23l27.7,43.83,52.61,1.18Z"></path><path fill="#b5453c" d="M1169.89,217.32c-.27-1.2-25.17-45.51-25.17-45.51h-52.82l26.35,45.51h51.64Z"></path><path fill="#9e332e" d="M1123.33,194.71c.54,1.78,2.27,3.21,3.84,3.21s2.42-1.44,1.87-3.21c-.54-1.78-2.26-3.21-3.84-3.21s-2.42,1.44-1.88,3.21Z"></path></g><path fill="#ffb27d" d="M1203.45,200.73s-16.03-3.49-17.84-2.62c-1.81,.87-11.89,11.04-10.86,13.08,1.03,2.03,5.17,3.49,9.83,1.74,4.65-1.74,14.74-2.62,16.55-5.23,1.81-2.62,2.33-6.98,2.33-6.98Z"></path></g><g id="d"><path fill="#ed985f" d="M178.2,805.02s53.18,26.04,62.83,25.57c9.65-.47,69.14-20.37,69.14-20.37l-1.51,11.5s-45.9,29.68-61.95,31.36c-15.8,1.66-69.83-15.94-75.04-19.66-5.22-3.72-8.62-24.65,6.54-28.41Z"></path><path fill="#233862" d="M170.21,709.21s-19.62-4.19-29.39,3.83c-17.7,14.53-18.65,64.62-25.28,72.08s-22.62,4.28-24.05,42.89c-1.42,38.61,6.37,41.84-2.91,59.07-9.28,17.24,3.93,34.49,3.93,34.49,0,0-5.41-9.51-3.09-16.38,0,0,2.25,15.16,10.82,18.71,8.57,3.55,9.83,6.16,11.2,11.37,0,0,73.07-42.09,73.15-71.94,.08-29.85,14.38-59.43,7.36-72.36,0,0,3.13,5.53,3.51,11.69,0,0,4.21-9.08-3.09-17.52-7.3-8.45,8.57-25.93,6.22-46.18-1.61-13.9-10.29-29.13-28.37-29.73Z"></path><path fill="#ffb27d" d="M184.66,833.47c-4.67,3.64-10.53,6.65-17.88,8.55-27.56,7.16-38.12-19.02-42.09-37,3.76-2.42,7.29-2.95,9.34-3.22,1.99-.26,4.09-.44,5.82-.54,3.09-2.66,7.71-13.57,8.73-30.5l1.3,.39,21.72,6.68s-.99,7.76-1.48,15.1c-.38,5.74-.44,11.23,.53,12.57,1.69,.41,2.71,.68,2.71,.68,0,0,0,0,.01,.02,.29,.54,6.59,12.19,11.29,27.26Z"></path><path fill="#ed985f" d="M171.6,777.84s-1,7.75-1.48,15.1c-12.31-1.39-18.02-14.55-20.24-21.78l21.72,6.68Z"></path><path fill="#ffb27d" d="M175.27,785.13s-29.21-1.81-27.92-22.24c1.28-20.43-1.62-34.42,17.08-34.13,18.7,.29,21.83,8.37,22.88,15.31,1.05,6.94-4.41,41-12.04,41.06Z"></path><path fill="#233862" d="M187.16,732.64c-4.12-6.51-7.61-5.43-9.64-3.74-15.32-11.14-33.03-3.82-33.03-3.82-2.89,14.5-6.32,28.56-6.32,28.56,0,0,5.08,4.12,17.57,1.57,3.81-.78,7.35-3.5,10.42-6.9-5.56,8.95-12.74,15.14-12.74,15.14,15.13-6.43,22.47-28.84,23.21-31.22,1.67,1.94,4.93,6.13,5.75,10.04,1.12,5.32,5.96,13.63,8.76,13.49,0,0,2.19-13.36-3.99-23.12Z"></path><path fill="#b5453c" d="M116.38,900.22c-2.64-15.16-11.24-75.71-2.64-95.19,3.09-7,15.21-7.63,28.5-7.02,4.14,3,19.9,14.35,26.38,12.93,.07-.02,.2-.05,.36-.1,3.05-.86,4.2-3.27,1.66-5.34,0,0,6.59-.71,14.76,1.02,4.62,.98,17.08,8.22,17.08,8.22,0,0-6.27,12.74-15.53,17.14,1.57,15.82-.77,22.8-15.37,59.34-12.34,30.89,1.66,58.69,1.66,58.69,0,0-72.62,65.64-73.03,32.22-.3-25.16,19.52-62.54,16.15-81.91Z"></path><path fill="#dd6d22" d="M176.86,1021.28c3.95-.5,7.51-2.93,9.71-6.65,.35-.59,.73-1.22,1.12-1.9,8.27-14.07,11.48-57.15,30.08-103.04,4.53-11.17,20.79-13.18,25.22-25.81,0,0,10.91-40.94-20.88-42.15-31.8-1.21-85.15,113.91-85.99,125.98-.82,11.7-21.02,61.4,40.75,53.57Z"></path><path fill="#9e332e" d="M303.23,1020.34h-45.25s-1.69-8.11,1.28-13.63c2.63-4.88,1.62-7.67-.33-11.71,2.05,.94,4.7,1.8,7.62,1.61,2.25-.15,4.64-1.3,6.73-2.66,1.95,2.5,10.29,13.12,12.89,15.23,2.96,2.39,16.14,1.54,17.06,11.16Z"></path><path fill="#9e332e" d="M121.15,820.89s-5.89,60.24,32.31,72.86c38.2,12.62,49.04-55.42,18.2-60.32-30.84-4.89-50.51-12.54-50.51-12.54Z"></path><path fill="#ed7d2b" d="M244.03,853.56c2.73,22.96,13.37,95.45,32.14,130.81,6.05,11.4-15.25,17.79-15.36,17.76-2.86-.84-7.62-5.96-9.81-8.18-15.24-15.44-46.18-59.16-46.18-94.2,0-17.09-.27-49.73,10.79-58.02,6.81-5.11,27.34,2.72,28.42,11.84Z"></path><path fill="#f99746" d="M149.88,1020.34s1.68-2.62,4.6-7.61c3.48-5.93,7.33-17.59,12-32.53,4.91-15.69,10.73-35,18.01-55.08,2.25-6.2,4.63-12.47,7.17-18.74,4.53-11.17,16.99-9.63,21.42-22.26,0,0,17.3-43.79-14.5-44.99-31.79-1.21-92.21,117.13-95.68,128.6-3.8,12.55-22.34,64.65,46.98,52.63Z"></path><path fill="#b5453c" d="M270.01,1020.34h-45.25s-1.69-8.11,1.28-13.63c2.63-4.88,1.62-7.67-.33-11.71,2.05,.94,4.7,1.8,7.62,1.61,2.25-.15,4.64-1.3,6.73-2.66,1.95,2.5,10.29,13.12,12.89,15.23,2.96,2.39,16.14,1.54,17.06,11.16Z"></path><path fill="#ed7d2b" d="M166.48,980.2c4.91-15.69,10.73-35,18.01-55.08-1.9-15.22-6-28.53-12.89-33.9,0,0-16.72,58.24-5.12,88.98Z"></path><path fill="#f99746" d="M217.61,851.94c2.73,22.96,6.56,97.07,25.33,132.44,6.05,11.4-15.25,17.79-15.36,17.76-2.86-.84-7.62-5.96-9.81-8.18-15.24-15.44-46.18-59.16-46.18-94.2,0-17.09,17.84-48.36,28.9-56.65,6.81-5.11,16.03-.28,17.12,8.85Z"></path><g><path fill="#9e332e" d="M315.57,780.63l-46.34-5.53c-1.35-.16-2.63,.72-3.11,2.15l-16.58,48.98c-.73,2.15,.63,4.46,2.68,4.56l45.99,2.09c1.25,.06,2.4-.77,2.88-2.06l16.94-45.53c.77-2.08-.45-4.4-2.44-4.64Z"></path><path fill="#b5453c" d="M319.6,781.11l-46.34-5.53c-1.35-.16-2.63,.72-3.11,2.15l-16.58,48.98c-.73,2.15,.63,4.46,2.68,4.56l45.99,2.09c1.25,.06,2.4-.77,2.88-2.06l16.94-45.53c.77-2.08-.45-4.4-2.44-4.64Z"></path><path fill="#9e332e" d="M293.91,803.98c.57-1.75-.24-3.17-1.79-3.17s-3.28,1.42-3.84,3.17c-.57,1.75,.24,3.17,1.79,3.17s3.27-1.42,3.84-3.17Z"></path><path fill="#9e332e" d="M318.21,785.74c.28-.86-.12-1.56-.88-1.56s-1.61,.7-1.89,1.56c-.28,.86,.12,1.56,.88,1.56s1.61-.7,1.89-1.56Z"></path></g><path fill="#ffb27d" d="M124.7,805.02s64.23,26.59,73.88,26.04c6.24-.35,58.09-20.84,58.09-20.84l4.65,9.9s-50.47,36.46-64.34,36.28c-27.39-.36-73.61-19.26-78.83-22.97-5.22-3.72-8.62-24.65,6.54-28.41Z"></path><path fill="#ffb27d" d="M256.67,810.23s4.65-8.05,9.29-8.29c4.63-.24,12.64,3.55,15.38,4.14,2.74,.59,10.53,3.43,8.22,7.7-2.32,4.26-13.06,5.21-17.7,4.26-4.63-.95-10.53,2.08-10.53,2.08l-4.65-9.9Z"></path><path fill="#ffb27d" d="M264.69,802.19s7.37-3.8,9.48-4.51c2.11-.71,1.69,.01,1.05,2.26-.63,2.24-4.42,4.39-4.42,5.09s-6.11-2.84-6.11-2.84Z"></path><path fill="#ffb27d" d="M314.82,805.96s-4.65-8.26-6.17-8.6c-4.64-1.03-4.64,5.83-3.65,10.26,1.05,4.75,4.63,9.23,5.61,8.84,.99-.39,5.3-6.13,4.21-10.5Z"></path><path fill="#ffb27d" d="M315,807.62s1.49,9.27-6.35,14.11l6.35-14.11Z"></path><path fill="#fff" d="M180.74,773.38s-2.76-1.23-10.53-.52c0,0,.41,3.41,6.14,3.74,3.25,.19,4.39-3.22,4.39-3.22Z"></path><path fill="#b5453c" d="M157.79,818.13s-5.75,20.44-25.47,25.09c0,0-32.58-11.28-16.36-36.23,0,0,16.04-13.4,41.83,11.14Z"></path></g><rect fill="#16254a" height="17.07" width="272.64" y="891.22" x="705.41"></rect></g></g></g></svg>